{
	"asset":{
		"generator":"Khronos glTF Blender I/O v4.3.47",
		"version":"2.0"
	},
	"scene":0,
	"scenes":[
		{
			"name":"Scene",
			"nodes":[
				0,
				1,
				2,
				3,
				4,
				5,
				6
			]
		}
	],
	"nodes":[
		{
			"mesh":0,
			"name":"SM_hull"
		},
		{
			"mesh":1,
			"name":"SM_gun_01_mask",
			"translation":[
				1.6110610961914062,
				1.0590980052947998,
				0.20449338853359222
			]
		},
		{
			"mesh":2,
			"name":"SM_gun_01",
			"translation":[
				1.6110610961914062,
				1.0590980052947998,
				0.20449338853359222
			]
		},
		{
			"mesh":3,
			"name":"SM_chassis_wheels.001"
		},
		{
			"mesh":4,
			"name":"SM_chassis_track_R"
		},
		{
			"mesh":5,
			"name":"SM_chassis_track_L"
		},
		{
			"mesh":6,
			"name":"SM_hull_nc"
		}
	],
	"materials":[
		{
			"name":"MI_G48_E_25",
			"normalTexture":{
				"index":0
			},
			"pbrMetallicRoughness":{
				"baseColorTexture":{
					"index":1
				},
				"metallicRoughnessTexture":{
					"index":2
				}
			}
		},
		{
			"alphaMode":"MASK",
			"doubleSided":true,
			"name":"MI_G48_E_25_track",
			"normalTexture":{
				"index":3
			},
			"pbrMetallicRoughness":{
				"baseColorTexture":{
					"index":4
				},
				"metallicRoughnessTexture":{
					"index":5
				}
			}
		}
	],
	"meshes":[
		{
			"name":"SM_hull",
			"primitives":[
				{
					"attributes":{
						"POSITION":0,
						"NORMAL":1,
						"TEXCOORD_0":2
					},
					"indices":3,
					"material":0
				}
			]
		},
		{
			"name":"SM_gun_01_mask",
			"primitives":[
				{
					"attributes":{
						"POSITION":4,
						"NORMAL":5,
						"TEXCOORD_0":6
					},
					"indices":7,
					"material":0
				}
			]
		},
		{
			"name":"SM_gun_01",
			"primitives":[
				{
					"attributes":{
						"POSITION":8,
						"NORMAL":9,
						"TEXCOORD_0":10
					},
					"indices":11,
					"material":0
				}
			]
		},
		{
			"name":"SM_chassis_wheels",
			"primitives":[
				{
					"attributes":{
						"POSITION":12,
						"NORMAL":13,
						"TEXCOORD_0":14
					},
					"indices":15,
					"material":0
				}
			]
		},
		{
			"name":"SM_chassis_track_R",
			"primitives":[
				{
					"attributes":{
						"POSITION":16,
						"NORMAL":17,
						"TEXCOORD_0":18
					},
					"indices":19,
					"material":1
				}
			]
		},
		{
			"name":"SM_chassis_track_L",
			"primitives":[
				{
					"attributes":{
						"POSITION":20,
						"NORMAL":21,
						"TEXCOORD_0":22
					},
					"indices":23,
					"material":1
				}
			]
		},
		{
			"name":"SM_hull_nc",
			"primitives":[
				{
					"attributes":{
						"POSITION":24,
						"NORMAL":25,
						"TEXCOORD_0":26
					},
					"indices":27,
					"material":0
				}
			]
		}
	],
	"textures":[
		{
			"sampler":0,
			"source":0
		},
		{
			"sampler":0,
			"source":1
		},
		{
			"sampler":0,
			"source":2
		},
		{
			"sampler":0,
			"source":3
		},
		{
			"sampler":0,
			"source":4
		},
		{
			"sampler":0,
			"source":5
		}
	],
	"images":[
		{
			"mimeType":"image/png",
			"name":"T_G48_E_25_NM",
			"uri":"textures/T_G48_E_25_NM.png"
		},
		{
			"mimeType":"image/png",
			"name":"T_G48_E_25_BC",
			"uri":"textures/T_G48_E_25_BC.png"
		},
		{
			"mimeType":"image/png",
			"name":"T_G48_E_25_RM",
			"uri":"textures/T_G48_E_25_RM.png"
		},
		{
			"mimeType":"image/png",
			"name":"T_G24_VK3002DB_BP_Track_NM",
			"uri":"textures/T_G24_VK3002DB_BP_Track_NM.png"
		},
		{
			"mimeType":"image/png",
			"name":"T_G24_VK3002DB_BP_Track_BC",
			"uri":"textures/T_G24_VK3002DB_BP_Track_BC.png"
		},
		{
			"mimeType":"image/png",
			"name":"T_G24_VK3002DB_BP_Track_RM",
			"uri":"textures/T_G24_VK3002DB_BP_Track_RM.png"
		}
	],
	"accessors":[
		{
			"bufferView":0,
			"componentType":5126,
			"count":457,
			"max":[
				2.159724712371826,
				1.7756277322769165,
				1.4050077199935913
			],
			"min":[
				-2.150059223175049,
				0.35363471508026123,
				-1.3993736505508423
			],
			"type":"VEC3"
		},
		{
			"bufferView":1,
			"componentType":5126,
			"count":457,
			"type":"VEC3"
		},
		{
			"bufferView":2,
			"componentType":5126,
			"count":457,
			"type":"VEC2"
		},
		{
			"bufferView":3,
			"componentType":5123,
			"count":927,
			"type":"SCALAR"
		},
		{
			"bufferView":4,
			"componentType":5126,
			"count":149,
			"max":[
				0.8004500269889832,
				0.294879674911499,
				0.33836179971694946
			],
			"min":[
				0.2450464963912964,
				-0.1455247402191162,
				-0.33813583850860596
			],
			"type":"VEC3"
		},
		{
			"bufferView":5,
			"componentType":5126,
			"count":149,
			"type":"VEC3"
		},
		{
			"bufferView":6,
			"componentType":5126,
			"count":149,
			"type":"VEC2"
		},
		{
			"bufferView":7,
			"componentType":5123,
			"count":510,
			"type":"SCALAR"
		},
		{
			"bufferView":8,
			"componentType":5126,
			"count":60,
			"max":[
				3.547675609588623,
				0.07335174083709717,
				0.07009689509868622
			],
			"min":[
				0.7932062149047852,
				-0.0733446478843689,
				-0.06956489384174347
			],
			"type":"VEC3"
		},
		{
			"bufferView":9,
			"componentType":5126,
			"count":60,
			"type":"VEC3"
		},
		{
			"bufferView":10,
			"componentType":5126,
			"count":60,
			"type":"VEC2"
		},
		{
			"bufferView":11,
			"componentType":5123,
			"count":150,
			"type":"SCALAR"
		},
		{
			"bufferView":12,
			"componentType":5126,
			"count":3418,
			"max":[
				2.0205764770507812,
				0.8840512633323669,
				1.3006457090377808
			],
			"min":[
				-2.123586893081665,
				0.0823369026184082,
				-1.3006467819213867
			],
			"type":"VEC3"
		},
		{
			"bufferView":13,
			"componentType":5126,
			"count":3418,
			"type":"VEC3"
		},
		{
			"bufferView":14,
			"componentType":5126,
			"count":3418,
			"type":"VEC2"
		},
		{
			"bufferView":15,
			"componentType":5123,
			"count":6432,
			"type":"SCALAR"
		},
		{
			"bufferView":16,
			"componentType":5126,
			"count":262,
			"max":[
				2.1007537841796875,
				0.9693162441253662,
				1.4180124998092651
			],
			"min":[
				-2.1624984741210938,
				0.0037073760759085417,
				0.8160998225212097
			],
			"type":"VEC3"
		},
		{
			"bufferView":17,
			"componentType":5126,
			"count":262,
			"type":"VEC3"
		},
		{
			"bufferView":18,
			"componentType":5126,
			"count":262,
			"type":"VEC2"
		},
		{
			"bufferView":19,
			"componentType":5123,
			"count":744,
			"type":"SCALAR"
		},
		{
			"bufferView":20,
			"componentType":5126,
			"count":263,
			"max":[
				2.101503372192383,
				0.9693162441253662,
				-0.8161199688911438
			],
			"min":[
				-2.1617493629455566,
				0.0037073760759085417,
				-1.4180326461791992
			],
			"type":"VEC3"
		},
		{
			"bufferView":21,
			"componentType":5126,
			"count":263,
			"type":"VEC3"
		},
		{
			"bufferView":22,
			"componentType":5126,
			"count":263,
			"type":"VEC2"
		},
		{
			"bufferView":23,
			"componentType":5123,
			"count":744,
			"type":"SCALAR"
		},
		{
			"bufferView":24,
			"componentType":5126,
			"count":5242,
			"max":[
				2.283951997756958,
				3.425055742263794,
				1.496401309967041
			],
			"min":[
				-2.2703466415405273,
				0.27974075078964233,
				-1.4214048385620117
			],
			"type":"VEC3"
		},
		{
			"bufferView":25,
			"componentType":5126,
			"count":5242,
			"type":"VEC3"
		},
		{
			"bufferView":26,
			"componentType":5126,
			"count":5242,
			"type":"VEC2"
		},
		{
			"bufferView":27,
			"componentType":5123,
			"count":9990,
			"type":"SCALAR"
		}
	],
	"bufferViews":[
		{
			"buffer":0,
			"byteLength":5484,
			"byteOffset":0,
			"target":34962
		},
		{
			"buffer":0,
			"byteLength":5484,
			"byteOffset":5484,
			"target":34962
		},
		{
			"buffer":0,
			"byteLength":3656,
			"byteOffset":10968,
			"target":34962
		},
		{
			"buffer":0,
			"byteLength":1854,
			"byteOffset":14624,
			"target":34963
		},
		{
			"buffer":0,
			"byteLength":1788,
			"byteOffset":16480,
			"target":34962
		},
		{
			"buffer":0,
			"byteLength":1788,
			"byteOffset":18268,
			"target":34962
		},
		{
			"buffer":0,
			"byteLength":1192,
			"byteOffset":20056,
			"target":34962
		},
		{
			"buffer":0,
			"byteLength":1020,
			"byteOffset":21248,
			"target":34963
		},
		{
			"buffer":0,
			"byteLength":720,
			"byteOffset":22268,
			"target":34962
		},
		{
			"buffer":0,
			"byteLength":720,
			"byteOffset":22988,
			"target":34962
		},
		{
			"buffer":0,
			"byteLength":480,
			"byteOffset":23708,
			"target":34962
		},
		{
			"buffer":0,
			"byteLength":300,
			"byteOffset":24188,
			"target":34963
		},
		{
			"buffer":0,
			"byteLength":41016,
			"byteOffset":24488,
			"target":34962
		},
		{
			"buffer":0,
			"byteLength":41016,
			"byteOffset":65504,
			"target":34962
		},
		{
			"buffer":0,
			"byteLength":27344,
			"byteOffset":106520,
			"target":34962
		},
		{
			"buffer":0,
			"byteLength":12864,
			"byteOffset":133864,
			"target":34963
		},
		{
			"buffer":0,
			"byteLength":3144,
			"byteOffset":146728,
			"target":34962
		},
		{
			"buffer":0,
			"byteLength":3144,
			"byteOffset":149872,
			"target":34962
		},
		{
			"buffer":0,
			"byteLength":2096,
			"byteOffset":153016,
			"target":34962
		},
		{
			"buffer":0,
			"byteLength":1488,
			"byteOffset":155112,
			"target":34963
		},
		{
			"buffer":0,
			"byteLength":3156,
			"byteOffset":156600,
			"target":34962
		},
		{
			"buffer":0,
			"byteLength":3156,
			"byteOffset":159756,
			"target":34962
		},
		{
			"buffer":0,
			"byteLength":2104,
			"byteOffset":162912,
			"target":34962
		},
		{
			"buffer":0,
			"byteLength":1488,
			"byteOffset":165016,
			"target":34963
		},
		{
			"buffer":0,
			"byteLength":62904,
			"byteOffset":166504,
			"target":34962
		},
		{
			"buffer":0,
			"byteLength":62904,
			"byteOffset":229408,
			"target":34962
		},
		{
			"buffer":0,
			"byteLength":41936,
			"byteOffset":292312,
			"target":34962
		},
		{
			"buffer":0,
			"byteLength":19980,
			"byteOffset":334248,
			"target":34963
		}
	],
	"samplers":[
		{
			"magFilter":9729,
			"minFilter":9987
		}
	],
	"buffers":[
		{
			"byteLength":354228,
			"uri":"G48_E_25.bin"
		}
	]
}
